<svg version="1.1" id="Layer_1" xmlns="http://www.w3.org/2000/svg" xmlns:xlink="http://www.w3.org/1999/xlink" x="0px" y="0px"
	 width="100%" viewBox="0 0 1024 1024" enable-background="new 0 0 1024 1024" xml:space="preserve">
<path fill="#FF6B35" opacity="1.000000" stroke="none" 
	d="
M1025.000000,189.000000 
	C1025.000000,404.693512 1025.000000,620.387024 1024.621338,836.278503 
	C1023.831604,837.323181 1023.159546,838.137939 1023.051147,839.021790 
	C1022.293213,845.199646 1022.058289,851.468811 1020.902405,857.565918 
	C1016.105469,882.870056 1009.138977,907.437866 996.464478,930.153259 
	C983.902954,952.666199 967.532166,971.531189 946.336975,986.393494 
	C928.269043,999.062866 908.599304,1008.263733 887.438965,1013.783875 
	C871.756348,1017.875122 855.556213,1019.976318 839.606201,1023.065308 
	C838.648499,1023.250793 837.864746,1024.334351 837.000000,1025.000000 
	C621.306458,1025.000000 405.612946,1025.000000 189.721497,1024.621338 
	C188.676804,1023.831604 187.862030,1023.159607 186.978119,1023.051208 
	C180.800247,1022.293274 174.531067,1022.058105 168.433929,1020.902344 
	C143.129745,1016.105469 118.562065,1009.138916 95.846649,996.464478 
	C73.333748,983.903015 54.469074,967.531860 39.606659,946.336975 
	C26.937046,928.269165 17.736202,908.599365 12.216077,887.439087 
	C8.124889,871.756348 6.023748,855.556152 2.934830,839.606140 
	C2.749368,838.648438 1.665724,837.864685 1.000009,837.000000 
	C1.000000,621.306458 1.000000,405.612946 1.378655,189.721466 
	C2.168434,188.676773 2.840332,187.862030 2.948769,186.978149 
	C3.706693,180.800278 3.941846,174.531113 5.097663,168.433975 
	C9.894521,143.129791 16.861069,118.562073 29.535503,95.846649 
	C42.096947,73.333748 58.468006,54.469017 79.663002,39.606689 
	C97.730843,26.937170 117.400558,17.736179 138.560837,12.216062 
	C154.243546,8.124887 170.443741,6.023755 186.393768,2.934819 
	C187.351486,2.749343 188.135284,1.665706 189.000000,1.000000 
	C404.693512,1.000000 620.387024,1.000000 836.278503,1.378663 
	C837.323242,2.168448 838.138062,2.840345 839.021973,2.948784 
	C845.199829,3.706674 851.469055,3.941709 857.566162,5.097581 
	C882.870239,9.894690 907.437988,16.861139 930.153503,29.535564 
	C952.666443,42.096996 971.531128,58.468090 986.393494,79.663086 
	C999.062988,97.730934 1008.263855,117.400665 1013.783936,138.560928 
	C1017.875122,154.243622 1019.976196,170.443817 1023.065063,186.393860 
	C1023.250549,187.351562 1024.334229,188.135315 1025.000000,189.000000 
M375.462921,99.027756 
	C374.143127,101.700447 371.826447,104.319588 371.679504,107.055267 
	C371.103912,117.772385 370.027588,128.680222 371.396454,139.223907 
	C372.809235,150.105743 380.849060,156.470322 391.684784,158.589294 
	C395.588623,159.352661 399.610443,159.885681 403.579071,159.889786 
	C476.573761,159.965073 549.568909,160.038803 622.562988,159.818726 
	C631.302246,159.792389 640.288147,159.008774 647.286865,152.293381 
	C657.868835,142.139954 659.915955,111.758682 650.761536,99.306366 
	C644.291992,90.506287 634.952087,88.066254 624.783081,88.048897 
	C572.620239,87.959854 520.457275,88.001358 468.294312,88.002541 
	C445.462616,88.003059 422.629059,87.848587 399.800171,88.105431 
	C390.575745,88.209213 381.989532,90.659279 375.462921,99.027756 
M448.623291,554.862610 
	C466.638336,580.608704 491.263855,592.505249 522.572876,589.078369 
	C565.487488,584.381165 595.676880,543.757324 588.826477,500.619720 
	C582.108276,458.314392 540.721985,429.295685 498.835388,437.520905 
	C445.153015,448.062469 419.654785,506.868347 448.623291,554.862610 
M347.215607,488.500000 
	C347.215576,544.654724 347.213989,600.809387 347.221069,656.964111 
	C347.221344,659.295776 347.180206,661.637390 347.367523,663.957458 
	C348.343597,676.049133 353.461945,681.267517 365.461914,682.451050 
	C367.281464,682.630554 369.119965,682.675842 370.950012,682.681702 
	C390.041870,682.743042 395.695679,677.114502 395.697357,657.974670 
	C395.705780,561.328491 395.706757,464.682312 395.676544,368.036133 
	C395.675568,364.880463 395.514313,361.696136 395.074829,358.574860 
	C393.887146,350.139313 388.860077,345.134460 380.423431,343.922455 
	C377.630737,343.521271 374.783844,343.348297 371.960449,343.334106 
	C352.894958,343.238129 347.223511,348.911194 347.218750,368.025330 
	C347.208801,407.850220 347.215851,447.675110 347.215607,488.500000 
M678.784424,418.500000 
	C678.784119,401.336853 678.821655,384.173584 678.749207,367.010742 
	C678.735901,363.860168 678.529663,360.665833 677.972351,357.570953 
	C676.581543,349.847198 671.767090,345.084320 663.977600,344.026917 
	C659.544922,343.425201 654.998962,343.224121 650.528564,343.415649 
	C636.677734,344.009064 631.098755,349.699097 630.352600,363.553070 
	C630.281006,364.882874 630.300903,366.218323 630.300903,367.551147 
	C630.298889,464.530487 630.291748,561.509827 630.330017,658.489197 
	C630.331299,661.807861 630.531982,665.170166 631.086487,668.436218 
	C632.341736,675.830688 637.207520,680.649841 644.615356,681.925964 
	C647.555237,682.432373 650.577759,682.635559 653.565247,682.660339 
	C673.252380,682.823669 678.781433,677.272827 678.782532,657.449341 
	C678.787109,578.132874 678.784302,498.816437 678.784424,418.500000 
M708.708496,413.006744 
	C702.533386,417.297638 701.135315,423.723328 701.129700,430.599915 
	C701.084656,485.593781 701.045959,540.587891 701.148254,595.581604 
	C701.174316,609.593079 707.761780,615.885559 721.821777,616.097168 
	C722.988098,616.114685 724.154846,616.110291 725.321350,616.110352 
	C744.157959,616.111145 749.247131,611.013611 749.251648,592.029602 
	C749.264282,539.368713 749.259705,486.707855 749.246338,434.046967 
	C749.245605,431.215698 749.320984,428.358063 748.982239,425.558502 
	C748.135376,418.559204 744.924805,412.836395 737.740967,411.198273 
	C728.267273,409.037964 718.627075,408.476044 708.708496,413.006744 
M323.510773,604.702576 
	C323.975555,601.083740 324.839417,597.465576 324.845245,593.845947 
	C324.932190,540.022217 324.909485,486.198212 324.891632,432.374298 
	C324.890930,430.213470 324.864960,428.024658 324.538849,425.896667 
	C322.962433,415.609009 317.089508,410.425262 306.635010,409.974457 
	C304.804626,409.895508 302.970032,409.894867 301.137329,409.892517 
	C281.819733,409.867584 276.752563,414.858032 276.748108,434.009003 
	C276.735901,486.666473 276.741119,539.323914 276.752167,591.981384 
	C276.752716,594.646301 276.740417,597.322266 276.962433,599.973999 
	C277.671906,608.447266 282.306610,614.330383 290.689911,615.413147 
	C297.375244,616.276611 304.316895,615.985657 311.058990,615.327942 
	C316.898499,614.758301 321.061462,611.071167 323.510773,604.702576 
M532.097839,403.256073 
	C533.562683,403.514435 535.027527,403.772766 537.068848,404.132812 
	C537.068848,401.868469 537.068909,399.903503 537.068909,397.938538 
	C537.068909,363.960510 537.075134,329.982513 537.064209,296.004486 
	C537.061707,288.176758 537.217957,280.340454 536.910339,272.523499 
	C536.533508,262.948639 531.651123,256.893982 522.427124,255.630447 
	C516.239014,254.782806 509.750641,254.800781 503.557739,255.631958 
	C494.667236,256.825165 489.969696,262.545990 489.107544,271.540497 
	C488.901489,273.689941 488.938232,275.866852 488.937775,278.031128 
	C488.928833,318.171814 488.931091,358.312500 488.931030,398.453186 
	C488.931030,400.244171 488.931091,402.035187 488.931091,404.160065 
	C503.358856,401.312286 517.270020,400.912018 532.097839,403.256073 
M515.466614,624.253357 
	C506.746307,623.713440 498.026001,623.173523 488.931366,622.610474 
	C488.931366,623.769775 488.931366,625.078247 488.931366,626.386719 
	C488.931610,667.349548 488.930206,708.312317 488.937988,749.275146 
	C488.938324,750.939453 488.937714,752.611633 489.086426,754.266785 
	C489.909790,763.430786 494.767426,769.278564 503.844604,770.455994 
	C509.884094,771.239380 516.194763,771.236328 522.231201,770.434326 
	C531.310303,769.227966 536.130066,763.381287 536.915161,754.187561 
	C537.084717,752.200806 537.062500,750.194275 537.062866,748.196899 
	C537.070679,707.900146 537.068909,667.603394 537.068970,627.306641 
	C537.068970,625.585571 537.068848,623.864441 537.068848,622.331482 
	C529.682617,623.011169 523.065552,623.620056 515.466614,624.253357 
M560.814697,318.680298 
	C560.460571,321.477905 559.807373,324.274567 559.798767,327.073242 
	C559.715576,354.071716 559.786194,381.070709 559.670715,408.068970 
	C559.657959,411.056091 560.852539,412.477264 563.366699,413.747650 
	C580.369873,422.339478 594.212402,434.583679 605.026428,450.266571 
	C605.693176,451.233490 606.560669,452.062042 607.941101,453.654541 
	C607.941101,451.768494 607.941101,450.943024 607.941101,450.117554 
	C607.939697,409.452789 607.943787,368.787994 607.920349,328.123230 
	C607.919189,326.130035 607.841736,324.109955 607.519470,322.148438 
	C605.929016,312.467896 600.569885,307.516418 590.696289,306.895355 
	C586.054260,306.603363 581.368591,306.656006 576.720154,306.893555 
	C569.272827,307.274170 563.664001,310.531281 560.814697,318.680298 
M418.059052,345.500000 
	C418.059052,381.236267 418.059052,416.972534 418.059052,452.708801 
	C418.529846,453.011658 419.000641,453.314545 419.471436,453.617401 
	C419.664886,452.969116 419.714874,452.225586 420.072723,451.686432 
	C431.091888,435.083740 445.563446,422.395813 463.237152,413.200470 
	C464.770691,412.402588 466.092133,409.654877 466.133545,407.782410 
	C466.394958,395.961731 466.289337,384.132385 466.262115,372.306000 
	C466.224945,356.150116 466.389954,339.988525 466.004089,323.840485 
	C465.757324,313.514374 459.670258,307.620178 449.368256,306.900726 
	C445.061646,306.599976 440.706604,306.566101 436.397064,306.815948 
	C424.444305,307.508881 418.658752,313.423065 418.164398,325.513855 
	C417.905975,331.833435 418.080261,338.170746 418.059052,345.500000 
M418.059052,637.500000 
	C418.059021,644.495911 418.054779,651.491821 418.059937,658.487732 
	C418.070129,672.312866 417.888458,686.141785 418.156860,699.961975 
	C418.402069,712.588806 424.312775,718.536865 436.869843,719.215698 
	C441.345490,719.457703 445.874481,719.412170 450.338379,719.026245 
	C459.508240,718.233643 465.161438,712.390137 466.015106,703.183350 
	C466.214630,701.031189 466.253540,698.858093 466.254913,696.694580 
	C466.271210,670.876282 466.198273,645.057617 466.345428,619.240112 
	C466.365967,615.636414 465.416779,613.600830 462.043640,611.898315 
	C445.520233,603.558228 432.063843,591.596130 421.463104,576.419983 
	C420.653381,575.260803 419.746246,574.169617 418.059082,571.971558 
	C418.059082,594.354126 418.059082,615.427063 418.059052,637.500000 
M605.039429,575.684998 
	C594.262695,591.368347 580.446838,603.624756 563.453308,612.190125 
	C560.690247,613.582825 559.632507,615.218262 559.667847,618.317932 
	C559.821594,631.801575 559.723389,645.287964 559.735046,658.773315 
	C559.747009,672.591248 559.580383,686.413208 559.863586,700.225830 
	C560.120483,712.758972 565.798035,718.439270 578.171631,719.231445 
	C581.157166,719.422607 584.164856,719.481995 587.153687,719.370239 
	C602.003052,718.815063 607.886353,712.849487 607.912659,697.965637 
	C607.984131,657.509644 607.942993,617.053406 607.924805,576.597290 
	C607.924316,575.454163 607.678589,574.311096 607.452820,572.347168 
	C606.380676,573.802368 605.894287,574.462524 605.039429,575.684998 
M205.932892,497.507935 
	C205.952637,511.327209 205.799454,525.149597 206.045944,538.964783 
	C206.249161,550.355103 212.900879,556.735107 224.312546,557.013306 
	C228.305527,557.110657 232.309570,557.155823 236.297592,556.978333 
	C246.956650,556.504089 253.617371,550.368835 253.836166,539.725891 
	C254.202271,521.918701 254.157959,504.094543 253.846695,486.285217 
	C253.681808,476.849915 248.630630,470.752594 239.750977,469.573181 
	C233.225616,468.706512 226.416367,468.732391 219.878540,469.537415 
	C212.614410,470.431915 207.804855,475.170410 206.666428,482.596588 
	C205.966019,487.165375 206.147278,491.869354 205.932892,497.507935 
M814.811157,552.332886 
	C816.529785,548.286560 819.609741,544.281067 819.732361,540.187012 
	C820.274658,522.073792 820.245239,503.929108 819.858582,485.807892 
	C819.639709,475.550720 812.760437,469.368652 802.482117,469.013611 
	C798.329102,468.870148 794.162231,468.854279 790.010254,469.009674 
	C778.894287,469.425720 772.272949,475.779114 772.105286,486.934875 
	C771.842957,504.395569 771.871643,521.865784 772.134766,539.326538 
	C772.230896,545.705322 774.240723,552.248718 780.721008,554.527283 
	C791.901184,558.458191 803.392883,559.473694 814.811157,552.332886 
z"/>
<path fill="#000000" opacity="1.000000" stroke="none" 
	d="
M837.468628,1025.000000 
	C837.864746,1024.334351 838.648499,1023.250793 839.606201,1023.065308 
	C855.556213,1019.976318 871.756348,1017.875122 887.438965,1013.783875 
	C908.599304,1008.263733 928.269043,999.062866 946.336975,986.393494 
	C967.532166,971.531189 983.902954,952.666199 996.464478,930.153259 
	C1009.138977,907.437866 1016.105469,882.870056 1020.902405,857.565918 
	C1022.058289,851.468811 1022.293213,845.199646 1023.051147,839.021790 
	C1023.159546,838.137939 1023.831604,837.323181 1024.621338,836.738220 
	C1025.000000,899.593689 1025.000000,962.187317 1025.000000,1025.000000 
	C962.645935,1025.000000 900.291626,1025.000000 837.468628,1025.000000 
z"/>
<path fill="#000000" opacity="1.000000" stroke="none" 
	d="
M1.000009,837.468628 
	C1.665724,837.864685 2.749368,838.648438 2.934830,839.606140 
	C6.023748,855.556152 8.124889,871.756348 12.216077,887.439087 
	C17.736202,908.599365 26.937046,928.269165 39.606659,946.336975 
	C54.469074,967.531860 73.333748,983.903015 95.846649,996.464478 
	C118.562065,1009.138916 143.129745,1016.105469 168.433929,1020.902344 
	C174.531067,1022.058105 180.800247,1022.293274 186.978119,1023.051208 
	C187.862030,1023.159607 188.676804,1023.831604 189.261780,1024.621338 
	C126.406319,1025.000000 63.812634,1025.000000 1.000000,1025.000000 
	C1.000000,962.645935 1.000000,900.291626 1.000009,837.468628 
z"/>
<path fill="#000000" opacity="1.000000" stroke="none" 
	d="
M1025.000000,188.531342 
	C1024.334229,188.135315 1023.250549,187.351562 1023.065063,186.393860 
	C1019.976196,170.443817 1017.875122,154.243622 1013.783936,138.560928 
	C1008.263855,117.400665 999.062988,97.730934 986.393494,79.663086 
	C971.531128,58.468090 952.666443,42.096996 930.153503,29.535564 
	C907.437988,16.861139 882.870239,9.894690 857.566162,5.097581 
	C851.469055,3.941709 845.199829,3.706674 839.021973,2.948784 
	C838.138062,2.840345 837.323242,2.168448 836.738220,1.378663 
	C899.593689,1.000000 962.187317,1.000000 1025.000000,1.000000 
	C1025.000000,63.354057 1025.000000,125.708366 1025.000000,188.531342 
z"/>
<path fill="#000000" opacity="1.000000" stroke="none" 
	d="
M188.531342,1.000000 
	C188.135284,1.665706 187.351486,2.749343 186.393768,2.934819 
	C170.443741,6.023755 154.243546,8.124887 138.560837,12.216062 
	C117.400558,17.736179 97.730843,26.937170 79.663002,39.606689 
	C58.468006,54.469017 42.096947,73.333748 29.535503,95.846649 
	C16.861069,118.562073 9.894521,143.129791 5.097663,168.433975 
	C3.941846,174.531113 3.706693,180.800278 2.948769,186.978149 
	C2.840332,187.862030 2.168434,188.676773 1.378655,189.261749 
	C1.000000,126.406303 1.000000,63.812611 1.000000,1.000000 
	C63.354057,1.000000 125.708366,1.000000 188.531342,1.000000 
z"/>
<path fill="#FF8C61" opacity="1.000000" stroke="none" 
	d="
M375.694641,98.749222 
	C381.989532,90.659279 390.575745,88.209213 399.800171,88.105431 
	C422.629059,87.848587 445.462616,88.003059 468.294312,88.002541 
	C520.457275,88.001358 572.620239,87.959854 624.783081,88.048897 
	C634.952087,88.066254 644.291992,90.506287 650.761536,99.306366 
	C659.915955,111.758682 657.868835,142.139954 647.286865,152.293381 
	C640.288147,159.008774 631.302246,159.792389 622.562988,159.818726 
	C549.568909,160.038803 476.573761,159.965073 403.579071,159.889786 
	C399.610443,159.885681 395.588623,159.352661 391.684784,158.589294 
	C380.849060,156.470322 372.809235,150.105743 371.396454,139.223907 
	C370.027588,128.680222 371.103912,117.772385 371.679504,107.055267 
	C371.826447,104.319588 374.143127,101.700447 375.694641,98.749222 
z"/>
<path fill="#FFFEFE" opacity="1.000000" stroke="none" 
	d="
M448.419678,554.562744 
	C419.654785,506.868347 445.153015,448.062469 498.835388,437.520905 
	C540.721985,429.295685 582.108276,458.314392 588.826477,500.619720 
	C595.676880,543.757324 565.487488,584.381165 522.572876,589.078369 
	C491.263855,592.505249 466.638336,580.608704 448.419678,554.562744 
z"/>
<path fill="#FFCAB6" opacity="1.000000" stroke="none" 
	d="
M347.215759,488.000000 
	C347.215851,447.675110 347.208801,407.850220 347.218750,368.025330 
	C347.223511,348.911194 352.894958,343.238129 371.960449,343.334106 
	C374.783844,343.348297 377.630737,343.521271 380.423431,343.922455 
	C388.860077,345.134460 393.887146,350.139313 395.074829,358.574860 
	C395.514313,361.696136 395.675568,364.880463 395.676544,368.036133 
	C395.706757,464.682312 395.705780,561.328491 395.697357,657.974670 
	C395.695679,677.114502 390.041870,682.743042 370.950012,682.681702 
	C369.119965,682.675842 367.281464,682.630554 365.461914,682.451050 
	C353.461945,681.267517 348.343597,676.049133 347.367523,663.957458 
	C347.180206,661.637390 347.221344,659.295776 347.221069,656.964111 
	C347.213989,600.809387 347.215576,544.654724 347.215759,488.000000 
z"/>
<path fill="#FFCAB6" opacity="1.000000" stroke="none" 
	d="
M678.784302,419.000000 
	C678.784302,498.816437 678.787109,578.132874 678.782532,657.449341 
	C678.781433,677.272827 673.252380,682.823669 653.565247,682.660339 
	C650.577759,682.635559 647.555237,682.432373 644.615356,681.925964 
	C637.207520,680.649841 632.341736,675.830688 631.086487,668.436218 
	C630.531982,665.170166 630.331299,661.807861 630.330017,658.489197 
	C630.291748,561.509827 630.298889,464.530487 630.300903,367.551147 
	C630.300903,366.218323 630.281006,364.882874 630.352600,363.553070 
	C631.098755,349.699097 636.677734,344.009064 650.528564,343.415649 
	C654.998962,343.224121 659.544922,343.425201 663.977600,344.026917 
	C671.767090,345.084320 676.581543,349.847198 677.972351,357.570953 
	C678.529663,360.665833 678.735901,363.860168 678.749207,367.010742 
	C678.821655,384.173584 678.784119,401.336853 678.784302,419.000000 
z"/>
<path fill="#FFB59A" opacity="1.000000" stroke="none" 
	d="
M709.027649,412.802643 
	C718.627075,408.476044 728.267273,409.037964 737.740967,411.198273 
	C744.924805,412.836395 748.135376,418.559204 748.982239,425.558502 
	C749.320984,428.358063 749.245605,431.215698 749.246338,434.046967 
	C749.259705,486.707855 749.264282,539.368713 749.251648,592.029602 
	C749.247131,611.013611 744.157959,616.111145 725.321350,616.110352 
	C724.154846,616.110291 722.988098,616.114685 721.821777,616.097168 
	C707.761780,615.885559 701.174316,609.593079 701.148254,595.581604 
	C701.045959,540.587891 701.084656,485.593781 701.129700,430.599915 
	C701.135315,423.723328 702.533386,417.297638 709.027649,412.802643 
z"/>
<path fill="#FFB59A" opacity="1.000000" stroke="none" 
	d="
M323.362366,605.068176 
	C321.061462,611.071167 316.898499,614.758301 311.058990,615.327942 
	C304.316895,615.985657 297.375244,616.276611 290.689911,615.413147 
	C282.306610,614.330383 277.671906,608.447266 276.962433,599.973999 
	C276.740417,597.322266 276.752716,594.646301 276.752167,591.981384 
	C276.741119,539.323914 276.735901,486.666473 276.748108,434.009003 
	C276.752563,414.858032 281.819733,409.867584 301.137329,409.892517 
	C302.970032,409.894867 304.804626,409.895508 306.635010,409.974457 
	C317.089508,410.425262 322.962433,415.609009 324.538849,425.896667 
	C324.864960,428.024658 324.890930,430.213470 324.891632,432.374298 
	C324.909485,486.198212 324.932190,540.022217 324.845245,593.845947 
	C324.839417,597.465576 323.975555,601.083740 323.362366,605.068176 
z"/>
<path fill="#FFFFFF" opacity="1.000000" stroke="none" 
	d="
M531.661377,403.189728 
	C517.270020,400.912018 503.358856,401.312286 488.931091,404.160065 
	C488.931091,402.035187 488.931030,400.244171 488.931030,398.453186 
	C488.931091,358.312500 488.928833,318.171814 488.937775,278.031128 
	C488.938232,275.866852 488.901489,273.689941 489.107544,271.540497 
	C489.969696,262.545990 494.667236,256.825165 503.557739,255.631958 
	C509.750641,254.800781 516.239014,254.782806 522.427124,255.630447 
	C531.651123,256.893982 536.533508,262.948639 536.910339,272.523499 
	C537.217957,280.340454 537.061707,288.176758 537.064209,296.004486 
	C537.075134,329.982513 537.068909,363.960510 537.068909,397.938538 
	C537.068909,399.903503 537.068848,401.868469 537.068848,404.132812 
	C535.027527,403.772766 533.562683,403.514435 531.661377,403.189728 
z"/>
<path fill="#FFFFFF" opacity="1.000000" stroke="none" 
	d="
M515.957520,624.241150 
	C523.065552,623.620056 529.682617,623.011169 537.068848,622.331482 
	C537.068848,623.864441 537.068970,625.585571 537.068970,627.306641 
	C537.068909,667.603394 537.070679,707.900146 537.062866,748.196899 
	C537.062500,750.194275 537.084717,752.200806 536.915161,754.187561 
	C536.130066,763.381287 531.310303,769.227966 522.231201,770.434326 
	C516.194763,771.236328 509.884094,771.239380 503.844604,770.455994 
	C494.767426,769.278564 489.909790,763.430786 489.086426,754.266785 
	C488.937714,752.611633 488.938324,750.939453 488.937988,749.275146 
	C488.930206,708.312317 488.931610,667.349548 488.931366,626.386719 
	C488.931366,625.078247 488.931366,623.769775 488.931366,622.610474 
	C498.026001,623.173523 506.746307,623.713440 515.957520,624.241150 
z"/>
<path fill="#FFE0D6" opacity="1.000000" stroke="none" 
	d="
M560.917847,318.286530 
	C563.664001,310.531281 569.272827,307.274170 576.720154,306.893555 
	C581.368591,306.656006 586.054260,306.603363 590.696289,306.895355 
	C600.569885,307.516418 605.929016,312.467896 607.519470,322.148438 
	C607.841736,324.109955 607.919189,326.130035 607.920349,328.123230 
	C607.943787,368.787994 607.939697,409.452789 607.941101,450.117554 
	C607.941101,450.943024 607.941101,451.768494 607.941101,453.654541 
	C606.560669,452.062042 605.693176,451.233490 605.026428,450.266571 
	C594.212402,434.583679 580.369873,422.339478 563.366699,413.747650 
	C560.852539,412.477264 559.657959,411.056091 559.670715,408.068970 
	C559.786194,381.070709 559.715576,354.071716 559.798767,327.073242 
	C559.807373,324.274567 560.460571,321.477905 560.917847,318.286530 
z"/>
<path fill="#FFE0D6" opacity="1.000000" stroke="none" 
	d="
M418.059082,345.000000 
	C418.080261,338.170746 417.905975,331.833435 418.164398,325.513855 
	C418.658752,313.423065 424.444305,307.508881 436.397064,306.815948 
	C440.706604,306.566101 445.061646,306.599976 449.368256,306.900726 
	C459.670258,307.620178 465.757324,313.514374 466.004089,323.840485 
	C466.389954,339.988525 466.224945,356.150116 466.262115,372.306000 
	C466.289337,384.132385 466.394958,395.961731 466.133545,407.782410 
	C466.092133,409.654877 464.770691,412.402588 463.237152,413.200470 
	C445.563446,422.395813 431.091888,435.083740 420.072723,451.686432 
	C419.714874,452.225586 419.664886,452.969116 419.471436,453.617401 
	C419.000641,453.314545 418.529846,453.011658 418.059052,452.708801 
	C418.059052,416.972534 418.059052,381.236267 418.059082,345.000000 
z"/>
<path fill="#FFE0D6" opacity="1.000000" stroke="none" 
	d="
M418.059082,637.000000 
	C418.059082,615.427063 418.059082,594.354126 418.059082,571.971558 
	C419.746246,574.169617 420.653381,575.260803 421.463104,576.419983 
	C432.063843,591.596130 445.520233,603.558228 462.043640,611.898315 
	C465.416779,613.600830 466.365967,615.636414 466.345428,619.240112 
	C466.198273,645.057617 466.271210,670.876282 466.254913,696.694580 
	C466.253540,698.858093 466.214630,701.031189 466.015106,703.183350 
	C465.161438,712.390137 459.508240,718.233643 450.338379,719.026245 
	C445.874481,719.412170 441.345490,719.457703 436.869843,719.215698 
	C424.312775,718.536865 418.402069,712.588806 418.156860,699.961975 
	C417.888458,686.141785 418.070129,672.312866 418.059937,658.487732 
	C418.054779,651.491821 418.059021,644.495911 418.059082,637.000000 
z"/>
<path fill="#FFE0D6" opacity="1.000000" stroke="none" 
	d="
M605.223633,575.403809 
	C605.894287,574.462524 606.380676,573.802368 607.452820,572.347168 
	C607.678589,574.311096 607.924316,575.454163 607.924805,576.597290 
	C607.942993,617.053406 607.984131,657.509644 607.912659,697.965637 
	C607.886353,712.849487 602.003052,718.815063 587.153687,719.370239 
	C584.164856,719.481995 581.157166,719.422607 578.171631,719.231445 
	C565.798035,718.439270 560.120483,712.758972 559.863586,700.225830 
	C559.580383,686.413208 559.747009,672.591248 559.735046,658.773315 
	C559.723389,645.287964 559.821594,631.801575 559.667847,618.317932 
	C559.632507,615.218262 560.690247,613.582825 563.453308,612.190125 
	C580.446838,603.624756 594.262695,591.368347 605.223633,575.403809 
z"/>
<path fill="#FF9F7C" opacity="1.000000" stroke="none" 
	d="
M205.932770,497.010284 
	C206.147278,491.869354 205.966019,487.165375 206.666428,482.596588 
	C207.804855,475.170410 212.614410,470.431915 219.878540,469.537415 
	C226.416367,468.732391 233.225616,468.706512 239.750977,469.573181 
	C248.630630,470.752594 253.681808,476.849915 253.846695,486.285217 
	C254.157959,504.094543 254.202271,521.918701 253.836166,539.725891 
	C253.617371,550.368835 246.956650,556.504089 236.297592,556.978333 
	C232.309570,557.155823 228.305527,557.110657 224.312546,557.013306 
	C212.900879,556.735107 206.249161,550.355103 206.045944,538.964783 
	C205.799454,525.149597 205.952637,511.327209 205.932770,497.010284 
z"/>
<path fill="#FF9F7C" opacity="1.000000" stroke="none" 
	d="
M814.529785,552.570435 
	C803.392883,559.473694 791.901184,558.458191 780.721008,554.527283 
	C774.240723,552.248718 772.230896,545.705322 772.134766,539.326538 
	C771.871643,521.865784 771.842957,504.395569 772.105286,486.934875 
	C772.272949,475.779114 778.894287,469.425720 790.010254,469.009674 
	C794.162231,468.854279 798.329102,468.870148 802.482117,469.013611 
	C812.760437,469.368652 819.639709,475.550720 819.858582,485.807892 
	C820.245239,503.929108 820.274658,522.073792 819.732361,540.187012 
	C819.609741,544.281067 816.529785,548.286560 814.529785,552.570435 
z"/>
</svg>